<svg width="24" height="24" viewBox="0 0 24 24" fill="none" xmlns="http://www.w3.org/2000/svg">
<path d="M6.384 15V20.0002C6.384 21.3802 9.9915 22.5 14.442 22.5C18.8925 22.5 22.5 21.3802 22.5 20.0002V15H6.384Z" fill="#881421"/>
<path d="M6.384 9.50025V15C6.384 16.3808 9.9915 17.4998 14.442 17.4998C18.8925 17.4998 22.5 16.3808 22.5 15V9.50025H6.384Z" fill="#AF2031"/>
<path d="M6.384 3.99975V9.50025C6.384 10.8802 9.9915 12 14.442 12C18.8925 12 22.5 10.8802 22.5 9.50025V3.99975H6.384Z" fill="#C94F60"/>
<path d="M14.442 6.4995C18.8923 6.4995 22.5 5.38032 22.5 3.99975C22.5 2.61918 18.8923 1.5 14.442 1.5C9.99169 1.5 6.384 2.61918 6.384 3.99975C6.384 5.38032 9.99169 6.4995 14.442 6.4995Z" fill="#E08095"/>
<path opacity="0.1" d="M12.3255 6H6.384V18.5002H12.3255C12.5655 18.4967 12.7944 18.3983 12.9622 18.2266C13.13 18.0549 13.223 17.8238 13.221 17.5837V6.9165C13.223 6.67644 13.13 6.44534 12.9622 6.27363C12.7944 6.10192 12.5655 6.00356 12.3255 6V6Z" fill="black"/>
<path opacity="0.2" d="M11.8373 6.50025H6.384V18.9998H11.8373C12.0773 18.9962 12.3062 18.8978 12.4739 18.7261C12.6417 18.5544 12.7348 18.3233 12.7328 18.0833V7.41675C12.7348 7.1767 12.6417 6.94559 12.4739 6.77388C12.3062 6.60218 12.0773 6.50381 11.8373 6.50025V6.50025Z" fill="black"/>
<path opacity="0.2" d="M11.8373 6.50025H6.384V18H11.8373C12.0773 17.9964 12.3062 17.8981 12.4739 17.7264C12.6417 17.5547 12.7348 17.3236 12.7328 17.0835V7.41675C12.7348 7.1767 12.6417 6.94559 12.4739 6.77388C12.3062 6.60218 12.0773 6.50381 11.8373 6.50025V6.50025Z" fill="black"/>
<path opacity="0.2" d="M11.349 6.50025H6.384V18H11.349C11.589 17.9962 11.8178 17.8978 11.9855 17.7262C12.1532 17.5545 12.2463 17.3235 12.2445 17.0835V7.41675C12.2463 7.17675 12.1532 6.94576 11.9855 6.7741C11.8178 6.60243 11.589 6.504 11.349 6.50025V6.50025Z" fill="black"/>
<path d="M2.3955 6.50025H11.349C11.468 6.50162 11.5855 6.52642 11.6949 6.57322C11.8043 6.62002 11.9034 6.68791 11.9866 6.77302C12.0697 6.85813 12.1353 6.95878 12.1796 7.06923C12.2238 7.17968 12.2459 7.29777 12.2445 7.41675V16.5833C12.2459 16.7022 12.2238 16.8203 12.1796 16.9308C12.1353 17.0412 12.0697 17.1419 11.9866 17.227C11.9034 17.3121 11.8043 17.38 11.6949 17.4268C11.5855 17.4736 11.468 17.4984 11.349 17.4998H2.3955C2.27652 17.4984 2.15898 17.4736 2.04958 17.4268C1.94018 17.38 1.84108 17.3121 1.75792 17.227C1.67476 17.1419 1.60919 17.0412 1.56493 16.9308C1.52068 16.8203 1.49861 16.7022 1.5 16.5833V7.41675C1.49861 7.29777 1.52068 7.17968 1.56493 7.06923C1.60919 6.95878 1.67476 6.85813 1.75792 6.77302C1.84108 6.68791 1.94018 6.62002 2.04958 6.57322C2.15898 6.52642 2.27652 6.50162 2.3955 6.50025V6.50025Z" fill="#B72C3F"/>
<path d="M6.22874 9.02025H7.54724L9.66599 14.979H8.42099L7.95374 13.5577H5.77499L5.31674 14.979H4.07774L6.22874 9.02025ZM7.67324 12.6397L6.99824 10.4835C6.9428 10.3252 6.90139 10.1623 6.87449 9.99675H6.84749C6.82264 10.1679 6.78197 10.3364 6.72599 10.5L6.04199 12.6442L7.67324 12.6397Z" fill="white"/>
</svg>
