<svg width="24" height="24" viewBox="0 0 24 24" fill="none" xmlns="http://www.w3.org/2000/svg">
<path d="M2.375 2.63478H21.625V21.3552H2.375V2.63478Z" fill="#1F0040"/>
<path d="M1.5 1.76V22.23H22.5V1.76H1.5ZM2.375 2.63478H21.625V21.3552H2.375V2.63478ZM7.4325 13.3509L6.74125 15.9665C6.72375 16.0365 6.6975 16.0628 6.61 16.0628H5.32375C5.23625 16.0628 5.21875 16.0365 5.23625 15.9315L7.72125 7.24491C7.765 7.08745 7.79125 6.96498 7.80875 6.52758C7.80875 6.46635 7.835 6.44011 7.87875 6.44011H9.71625C9.7775 6.44011 9.80375 6.4576 9.82125 6.52758L12.6037 15.949C12.6212 16.019 12.6037 16.0628 12.5337 16.0628H11.09C11.02 16.0628 10.9762 16.0365 10.9587 15.9753L10.2325 13.3509H7.4325ZM9.89125 11.9338C9.64625 10.9628 9.05125 8.84577 8.8325 7.82227H8.815C8.63125 8.84577 8.15 10.5778 7.79125 11.9338C7.8 11.9338 9.89125 11.9338 9.89125 11.9338ZM14.5812 12.826C14.5987 14.007 15.1588 14.8031 16.4888 14.8031C17.005 14.8031 17.4513 14.7331 17.915 14.5319C17.9763 14.5056 18.02 14.5144 18.02 14.5931V15.6866C18.02 15.7741 17.9937 15.8178 17.9325 15.8616C17.4687 16.089 16.8912 16.194 16.1737 16.194C13.8637 16.194 12.9975 14.4881 12.9975 12.5811C12.9975 10.5166 14.065 8.82827 15.9463 8.82827C17.8538 8.82827 18.5187 10.4291 18.5187 11.7326C18.5187 12.1525 18.4925 12.4936 18.4487 12.6598C18.4312 12.7298 18.405 12.7561 18.335 12.7736C18.16 12.7998 17.6437 12.8348 16.8737 12.8348L14.5812 12.826ZM16.3575 11.6188C16.8037 11.6188 16.9612 11.6188 17.005 11.6013C17.005 11.5401 17.0225 11.4964 17.0225 11.4526C17.0225 10.9802 16.795 10.1055 15.885 10.1055C15.045 10.1055 14.6862 10.8403 14.5987 11.6188H16.3575Z" fill="#D291FF"/>
</svg>
