<svg width="24" height="24" viewBox="0 0 24 24" fill="none" xmlns="http://www.w3.org/2000/svg">
<path d="M2.37675 2.63775H21.6263V21.3622H2.37675V2.63775Z" fill="#1C0A00"/>
<path d="M2.37675 2.63775H21.6262V21.3622H2.37675V2.63775ZM1.5 22.2375H22.5V1.7625H1.5V22.2375ZM15.255 9.06C15.255 8.99025 15.2812 8.955 15.36 8.955H16.734C16.8038 8.955 16.839 8.98125 16.839 9.06V15.9637C16.839 16.0335 16.8218 16.0687 16.734 16.0687H15.3787C15.291 16.0687 15.2648 16.0252 15.2648 15.9547V9.06H15.2557H15.255ZM15.159 7.074C15.159 6.83729 15.253 6.61028 15.4204 6.4429C15.5878 6.27553 15.8148 6.1815 16.0515 6.1815C16.2882 6.1815 16.5152 6.27553 16.6826 6.4429C16.85 6.61028 16.944 6.83729 16.944 7.074C16.9527 7.19492 16.9349 7.31627 16.892 7.42965C16.8491 7.54303 16.7821 7.64573 16.6955 7.73062C16.609 7.81552 16.505 7.88059 16.3908 7.92132C16.2767 7.96204 16.155 7.97746 16.0342 7.9665C15.916 7.97392 15.7975 7.95576 15.6868 7.91327C15.5762 7.87078 15.476 7.80494 15.3931 7.72025C15.3102 7.63556 15.2465 7.534 15.2063 7.42248C15.1662 7.31096 15.1506 7.1921 15.1605 7.074H15.159ZM11.2215 11.9392C10.9762 10.9642 10.3965 8.85075 10.1805 7.827H10.1632C9.9795 8.85075 9.516 10.5832 9.1485 11.9392H11.2215ZM8.78925 13.3567L8.09775 15.9817C8.0805 16.0515 8.05425 16.0695 7.9665 16.0695H6.68175C6.594 16.0695 6.57675 16.0432 6.594 15.9382L9.07875 7.23825C9.13923 7.00105 9.16872 6.75702 9.1665 6.51225C9.1665 6.45075 9.19275 6.4245 9.23625 6.4245H11.0738C11.1353 6.4245 11.1615 6.44175 11.1787 6.51225L13.9612 15.9532C13.9785 16.023 13.9612 16.0672 13.8915 16.0672H12.4387C12.369 16.0672 12.3247 16.05 12.3075 15.9922L11.5898 13.3582H8.79L8.78925 13.3567Z" fill="#FF7F18"/>
</svg>
