<svg width="24" height="24" viewBox="0 0 24 24" fill="none" xmlns="http://www.w3.org/2000/svg">
<path d="M14.6858 11.5125L6.384 10.05V20.8568C6.3841 20.9742 6.40732 21.0904 6.45234 21.1988C6.49736 21.3072 6.56329 21.4057 6.64638 21.4887C6.72946 21.5716 6.82807 21.6374 6.93658 21.6822C7.04508 21.7271 7.16135 21.7501 7.27875 21.75H21.6038C21.7213 21.7503 21.8377 21.7274 21.9464 21.6827C22.0551 21.6379 22.1539 21.5722 22.2371 21.4892C22.3203 21.4063 22.3864 21.3077 22.4315 21.1992C22.4766 21.0906 22.4999 20.9743 22.5 20.8568V20.8568V16.875L14.6858 11.5125Z" fill="#185C37"/>
<path d="M14.6858 2.25H7.27875C7.16135 2.2499 7.04508 2.27293 6.93658 2.31776C6.82807 2.3626 6.72946 2.42837 6.64638 2.51132C6.56329 2.59426 6.49736 2.69276 6.45234 2.80119C6.40732 2.90962 6.3841 3.02585 6.384 3.14325V7.125L14.6858 12L19.0815 13.4625L22.5 12V7.125L14.6858 2.25Z" fill="#21A366"/>
<path d="M6.384 7.125H14.6858V12H6.384V7.125Z" fill="#107C41"/>
<path opacity="0.1" d="M12.3255 6.14999H6.384V18.3375H12.3255C12.5623 18.3363 12.789 18.2419 12.9566 18.0747C13.1242 17.9075 13.2192 17.681 13.221 17.4442V7.04324C13.2192 6.8065 13.1242 6.57999 12.9566 6.41279C12.789 6.24559 12.5623 6.15117 12.3255 6.14999V6.14999Z" fill="black"/>
<path opacity="0.2" d="M11.8373 6.6375H6.384V18.825H11.8373C12.074 18.8238 12.3008 18.7294 12.4684 18.5622C12.636 18.395 12.731 18.1685 12.7328 17.9317V7.53075C12.731 7.294 12.636 7.06749 12.4684 6.90029C12.3008 6.73309 12.074 6.63867 11.8373 6.6375V6.6375Z" fill="black"/>
<path opacity="0.2" d="M11.8373 6.6375H6.384V17.85H11.8373C12.074 17.8488 12.3008 17.7544 12.4684 17.5872C12.636 17.42 12.731 17.1935 12.7328 16.9567V7.53075C12.731 7.294 12.636 7.06749 12.4684 6.90029C12.3008 6.73309 12.074 6.63867 11.8373 6.6375V6.6375Z" fill="black"/>
<path opacity="0.2" d="M11.349 6.6375H6.384V17.85H11.349C11.5858 17.8488 11.8125 17.7544 11.9801 17.5872C12.1477 17.42 12.2427 17.1935 12.2445 16.9567V7.53075C12.2427 7.294 12.1477 7.06749 11.9801 6.90029C11.8125 6.73309 11.5858 6.63867 11.349 6.6375V6.6375Z" fill="black"/>
<path d="M2.3955 6.6375H11.349C11.5862 6.6373 11.8137 6.73127 11.9816 6.89877C12.1496 7.06626 12.2441 7.29358 12.2445 7.53075V16.4692C12.2441 16.7064 12.1496 16.9337 11.9816 17.1012C11.8137 17.2687 11.5862 17.3627 11.349 17.3625H2.3955C2.27804 17.3627 2.16168 17.3397 2.05309 17.2949C1.9445 17.2502 1.84581 17.1844 1.76264 17.1014C1.67948 17.0185 1.61348 16.92 1.56841 16.8115C1.52334 16.703 1.5001 16.5867 1.5 16.4692V7.53075C1.5001 7.41328 1.52334 7.29699 1.56841 7.18851C1.61348 7.08004 1.67948 6.9815 1.76264 6.89855C1.84581 6.81559 1.9445 6.74984 2.05309 6.70505C2.16168 6.66025 2.27804 6.6373 2.3955 6.6375V6.6375Z" fill="url(#paint0_linear)"/>
<path d="M4.275 14.9047L6.15825 11.9917L4.43325 9.09525H5.8185L6.75975 10.95C6.84675 11.1255 6.90975 11.256 6.93825 11.343H6.951C7.0125 11.202 7.07775 11.0662 7.146 10.9335L8.1525 9.09825H9.4275L7.65825 11.9782L9.4725 14.907H8.11575L7.02825 12.8737C6.97776 12.7863 6.93485 12.6947 6.9 12.6H6.882C6.85029 12.6923 6.80801 12.7806 6.756 12.8632L5.63625 14.9047H4.275Z" fill="white"/>
<path d="M21.6045 2.25H14.6858V7.125H22.5V3.14325C22.4999 3.02579 22.4767 2.90949 22.4316 2.80102C22.3865 2.69254 22.3205 2.59401 22.2374 2.51105C22.1542 2.4281 22.0555 2.36234 21.9469 2.31755C21.8383 2.27276 21.722 2.2498 21.6045 2.25V2.25Z" fill="#33C481"/>
<path d="M14.6858 12H22.5V16.875H14.6858V12Z" fill="#107C41"/>
<defs>
<linearGradient id="paint0_linear" x1="3.3705" y1="5.9355" x2="10.374" y2="18.0645" gradientUnits="userSpaceOnUse">
<stop stop-color="#18884F"/>
<stop offset="0.5" stop-color="#117E43"/>
<stop offset="1" stop-color="#0B6631"/>
</linearGradient>
</defs>
</svg>
