<svg width="24" height="24" viewBox="0 0 24 24" fill="none" xmlns="http://www.w3.org/2000/svg">
<path d="M5 4.75C5 2.67893 6.67893 1 8.75 1H12.5V8.5H8.75C6.67893 8.5 5 6.82107 5 4.75Z" fill="#E15A33"/>
<path d="M12.5 1H16.25C18.3211 1 20 2.67893 20 4.75C20 6.82107 18.3211 8.5 16.25 8.5H12.5V1Z" fill="#EE7A69"/>
<path d="M5 12.25C5 10.1789 6.67893 8.5 8.75 8.5H12.5V16H8.75C6.67893 16 5 14.3211 5 12.25Z" fill="#9862F7"/>
<path d="M5 19.75C5 17.6789 6.67893 16 8.75 16H12.5V19.75C12.5 21.8211 10.8211 23.5 8.75 23.5C6.67893 23.5 5 21.8211 5 19.75Z" fill="#5ECB8A"/>
<rect x="12.5" y="8.5" width="7.5" height="7.5" rx="3.75" fill="#56BBF8"/>
</svg>
