<svg width="24" height="24" viewBox="0 0 24 24" fill="none" xmlns="http://www.w3.org/2000/svg">
<path d="M2.37526 2.63775H21.6248V21.3622H2.37526V2.63775Z" fill="#0C0824"/>
<path d="M2.37525 2.63775H21.6248V21.3622H2.37525V2.63775ZM1.5 22.2375H22.5V1.7625H1.5V22.2375ZM15.6578 10.1625C14.9663 10.1625 14.73 10.5127 14.73 10.8015C14.73 11.1165 14.8875 11.3355 15.8152 11.8162C17.1892 12.4815 17.6152 13.1197 17.6152 14.0565C17.6152 15.4567 16.548 16.209 15.1042 16.209C14.4846 16.232 13.8688 16.1032 13.3102 15.834C13.2487 15.8077 13.2405 15.7642 13.2405 15.6937V14.406C13.2405 14.3182 13.284 14.292 13.3455 14.3362C13.87 14.6735 14.4806 14.8527 15.1042 14.8522C15.7957 14.8522 16.0845 14.5635 16.0845 14.1697C16.0845 13.8547 15.8835 13.575 14.9993 13.1197C13.7565 12.525 13.2405 11.9197 13.2405 10.9147C13.2405 9.786 14.124 8.85 15.6555 8.85C16.1886 8.8271 16.7209 8.91047 17.2215 9.09525C17.2503 9.11396 17.2737 9.14001 17.2891 9.17072C17.3045 9.20143 17.3115 9.2357 17.3093 9.27V10.47C17.3093 10.5397 17.2657 10.584 17.178 10.5577C16.7154 10.2914 16.1892 10.1554 15.6555 10.164L15.6578 10.1625ZM8.13225 11.2035C8.33325 11.2207 8.49075 11.2207 8.841 11.2207C9.86475 11.2207 10.827 10.8622 10.827 9.471C10.827 8.3595 10.1355 7.8 8.97225 7.8C8.622 7.8 8.28975 7.81725 8.13225 7.82625V11.2035ZM6.5745 6.5535C6.5745 6.492 6.69675 6.4485 6.76725 6.4485C7.3275 6.42225 8.1585 6.405 9.02475 6.405C11.4488 6.405 12.3937 7.73475 12.3937 9.43275C12.3937 11.655 10.7835 12.609 8.8065 12.609C8.47425 12.609 8.36025 12.5917 8.124 12.5917V15.9517C8.124 16.0215 8.09775 16.0567 8.019 16.0567H6.68025C6.6105 16.0567 6.57525 16.0305 6.57525 15.9517V6.55725L6.5745 6.5535Z" fill="#31C5F0"/>
</svg>
