<svg width="24" height="24" viewBox="0 0 24 24" fill="none" xmlns="http://www.w3.org/2000/svg">
<path d="M14.1975 12.975L12.7328 2.25H12.6233C10.0661 2.25434 7.61468 3.27086 5.80482 5.07735C3.99495 6.88384 2.97387 9.33337 2.96475 11.8905V12L14.1975 12.975Z" fill="#ED6C47"/>
<path d="M12.8422 2.25H12.7327V12L17.616 13.95L22.5 12V11.8905C22.4909 9.3335 21.4699 6.88408 19.6602 5.07761C17.8505 3.27115 15.3993 2.25454 12.8422 2.25V2.25Z" fill="#FF8F6B"/>
<path d="M22.5 12V12.1072C22.4905 14.6647 21.4691 17.1145 19.6591 18.9213C17.8491 20.7281 15.3975 21.7451 12.84 21.75H12.6248C10.0674 21.7447 7.61603 20.7276 5.80608 18.9209C3.99613 17.1141 2.97465 14.6646 2.96475 12.1072V12H22.5Z" fill="#D35230"/>
<path opacity="0.1" d="M13.221 7.04174V17.445C13.2196 17.622 13.1661 17.7947 13.0671 17.9414C12.9682 18.0881 12.8281 18.2024 12.6645 18.27C12.5577 18.315 12.4429 18.3382 12.327 18.3382H5.27024C5.13374 18.1822 5.00174 18.0165 4.87949 17.8507C3.63546 16.1947 2.96344 14.1792 2.96474 12.108V11.8935C2.96239 10.0252 3.50931 8.19742 4.53749 6.63749C4.64474 6.47174 4.75724 6.30599 4.87949 6.14999H12.327C12.5632 6.15156 12.7894 6.24594 12.9566 6.41278C13.1239 6.57961 13.2188 6.80552 13.221 7.04174V7.04174Z" fill="black"/>
<path opacity="0.2" d="M12.7327 7.53V17.9332C12.7327 18.0487 12.7095 18.1629 12.6645 18.2692C12.5968 18.4327 12.4825 18.5726 12.3357 18.6715C12.189 18.7703 12.0164 18.8237 11.8395 18.825H5.71499C5.56049 18.668 5.41224 18.5055 5.27024 18.3375C5.13374 18.1815 5.00174 18.0157 4.87949 17.85C3.63546 16.194 2.96344 14.1785 2.96474 12.1072V11.8927C2.96253 10.0247 3.50945 8.19721 4.53749 6.6375H11.8387C12.0751 6.63906 12.3014 6.73355 12.4686 6.90055C12.6359 7.06754 12.7308 7.29364 12.7327 7.53V7.53Z" fill="black"/>
<path opacity="0.2" d="M12.7327 7.53V16.9582C12.7306 17.1945 12.6356 17.4204 12.4684 17.5872C12.3011 17.754 12.075 17.8484 11.8387 17.85H4.87949C3.63546 16.194 2.96344 14.1785 2.96474 12.1072V11.8927C2.96253 10.0247 3.50945 8.19721 4.53749 6.6375H11.8387C12.0751 6.63906 12.3014 6.73355 12.4686 6.90055C12.6359 7.06754 12.7308 7.29364 12.7327 7.53V7.53Z" fill="black"/>
<path opacity="0.2" d="M12.2445 7.53V16.9582C12.2423 17.1945 12.1474 17.4204 11.9801 17.5872C11.8129 17.754 11.5867 17.8484 11.3505 17.85H4.87949C3.63546 16.194 2.96344 14.1785 2.96474 12.1072V11.8927C2.96253 10.0247 3.50945 8.19721 4.53749 6.6375H11.3505C11.5869 6.63906 11.8131 6.73355 11.9804 6.90055C12.1477 7.06754 12.2425 7.29364 12.2445 7.53V7.53Z" fill="black"/>
<path d="M2.3955 6.6375H11.349C11.5862 6.6373 11.8137 6.73127 11.9816 6.89877C12.1496 7.06626 12.2441 7.29358 12.2445 7.53075V16.4692C12.2441 16.7064 12.1496 16.9337 11.9816 17.1012C11.8137 17.2687 11.5862 17.3627 11.349 17.3625H2.3955C2.27804 17.3627 2.16168 17.3397 2.05309 17.2949C1.9445 17.2502 1.84581 17.1844 1.76264 17.1014C1.67948 17.0185 1.61348 16.92 1.56841 16.8115C1.52334 16.703 1.5001 16.5867 1.5 16.4692V7.53075C1.5001 7.41328 1.52334 7.29699 1.56841 7.18851C1.61348 7.08004 1.67948 6.9815 1.76264 6.89855C1.84581 6.81559 1.9445 6.74984 2.05309 6.70505C2.16168 6.66025 2.27804 6.6373 2.3955 6.6375V6.6375Z" fill="url(#paint0_linear)"/>
<path d="M6.96975 9.021C7.5526 8.9818 8.13043 9.15084 8.60025 9.498C8.79343 9.66997 8.94489 9.88368 9.04313 10.1229C9.14138 10.3622 9.18383 10.6207 9.16725 10.8788C9.17381 11.2423 9.07678 11.6003 8.8875 11.9108C8.696 12.2163 8.42015 12.4598 8.09325 12.612C7.71975 12.7852 7.31163 12.8709 6.9 12.8625H5.76525V14.9625H4.60575V9.021H6.96975ZM5.7645 11.955H6.76275C7.07926 11.9778 7.39319 11.8842 7.6455 11.6918C7.74867 11.5933 7.82901 11.4735 7.88084 11.3407C7.93267 11.2079 7.95475 11.0653 7.9455 10.923C7.9455 10.2685 7.56425 9.941 6.80175 9.9405H5.7645V11.955Z" fill="white"/>
<defs>
<linearGradient id="paint0_linear" x1="3.3705" y1="5.9355" x2="10.374" y2="18.0645" gradientUnits="userSpaceOnUse">
<stop stop-color="#CA4C28"/>
<stop offset="0.5" stop-color="#C5401E"/>
<stop offset="1" stop-color="#B62F14"/>
</linearGradient>
</defs>
</svg>
