<svg width="24" height="24" viewBox="0 0 24 24" fill="none" xmlns="http://www.w3.org/2000/svg">
<path d="M21.6045 2.25H7.27875C7.16135 2.2499 7.04508 2.27293 6.93658 2.31777C6.82807 2.3626 6.72946 2.42837 6.64638 2.51132C6.56329 2.59426 6.49736 2.69276 6.45234 2.80119C6.40732 2.90962 6.3841 3.02585 6.384 3.14325V7.125L14.6858 9.5625L22.5 7.125V3.14325C22.4999 3.02579 22.4767 2.90949 22.4316 2.80102C22.3865 2.69254 22.3205 2.59401 22.2374 2.51105C22.1542 2.4281 22.0555 2.36234 21.9469 2.31755C21.8383 2.27276 21.722 2.2498 21.6045 2.25V2.25Z" fill="#41A5EE"/>
<path d="M22.5 7.125H6.384V12L14.6858 13.4625L22.5 12V7.125Z" fill="#2B7CD3"/>
<path d="M6.384 12V16.875L14.1975 17.85L22.5 16.875V12H6.384Z" fill="#185ABD"/>
<path d="M7.27875 21.75H21.6038C21.7213 21.7503 21.8377 21.7274 21.9464 21.6827C22.0551 21.6379 22.1539 21.5722 22.2371 21.4892C22.3203 21.4062 22.3864 21.3077 22.4315 21.1992C22.4766 21.0906 22.4999 20.9743 22.5 20.8568V20.8568V16.875H6.384V20.8568C6.3841 20.9742 6.40732 21.0904 6.45234 21.1988C6.49736 21.3072 6.56329 21.4057 6.64638 21.4887C6.72946 21.5716 6.82807 21.6374 6.93658 21.6822C7.04508 21.7271 7.16135 21.7501 7.27875 21.75V21.75Z" fill="#103F91"/>
<path opacity="0.1" d="M12.3255 6.14999H6.384V18.3375H12.3255C12.5623 18.3363 12.789 18.2419 12.9566 18.0747C13.1242 17.9075 13.2192 17.681 13.221 17.4442V7.04324C13.2192 6.8065 13.1242 6.57999 12.9566 6.41279C12.789 6.24559 12.5623 6.15117 12.3255 6.14999V6.14999Z" fill="black"/>
<path opacity="0.2" d="M11.8373 6.6375H6.384V18.825H11.8373C12.074 18.8238 12.3008 18.7294 12.4684 18.5622C12.636 18.395 12.731 18.1685 12.7328 17.9317V7.53075C12.731 7.294 12.636 7.06749 12.4684 6.90029C12.3008 6.73309 12.074 6.63867 11.8373 6.6375V6.6375Z" fill="black"/>
<path opacity="0.2" d="M11.8373 6.6375H6.384V17.85H11.8373C12.074 17.8488 12.3008 17.7544 12.4684 17.5872C12.636 17.42 12.731 17.1935 12.7328 16.9567V7.53075C12.731 7.294 12.636 7.06749 12.4684 6.90029C12.3008 6.73309 12.074 6.63867 11.8373 6.6375V6.6375Z" fill="black"/>
<path opacity="0.2" d="M11.349 6.6375H6.384V17.85H11.349C11.5858 17.8488 11.8125 17.7544 11.9801 17.5872C12.1477 17.42 12.2427 17.1935 12.2445 16.9567V7.53075C12.2427 7.294 12.1477 7.06749 11.9801 6.90029C11.8125 6.73309 11.5858 6.63867 11.349 6.6375V6.6375Z" fill="black"/>
<path d="M2.3955 6.6375H11.349C11.5862 6.6373 11.8137 6.73127 11.9816 6.89877C12.1496 7.06626 12.2441 7.29358 12.2445 7.53075V16.4692C12.2441 16.7064 12.1496 16.9337 11.9816 17.1012C11.8137 17.2687 11.5862 17.3627 11.349 17.3625H2.3955C2.27804 17.3627 2.16168 17.3397 2.05309 17.2949C1.9445 17.2502 1.84581 17.1844 1.76264 17.1014C1.67948 17.0185 1.61348 16.92 1.56841 16.8115C1.52334 16.703 1.5001 16.5867 1.5 16.4692V7.53075C1.5001 7.41328 1.52334 7.29699 1.56841 7.18851C1.61348 7.08004 1.67948 6.9815 1.76264 6.89855C1.84581 6.81559 1.9445 6.74984 2.05309 6.70505C2.16168 6.66025 2.27804 6.6373 2.3955 6.6375V6.6375Z" fill="url(#paint0_linear)"/>
<path d="M5.175 13.491C5.19225 13.629 5.20425 13.749 5.2095 13.8518H5.2305C5.238 13.7543 5.2545 13.6365 5.27925 13.4993C5.304 13.362 5.32575 13.2458 5.346 13.1505L6.28725 9.09525H7.50525L8.48025 13.0898C8.53704 13.3368 8.57763 13.5874 8.60175 13.8398H8.61825C8.63617 13.5941 8.66999 13.3498 8.7195 13.1085L9.49875 9.09H10.6065L9.2385 14.901H7.94325L7.0155 11.0565C6.9885 10.9455 6.958 10.801 6.924 10.623C6.89 10.445 6.869 10.315 6.861 10.233H6.84525C6.83475 10.3275 6.81375 10.4678 6.78225 10.6538C6.75075 10.8405 6.726 10.9778 6.70725 11.0678L5.835 14.9033H4.518L3.1425 9.09525H4.2675L5.11575 13.1588C5.14107 13.2684 5.16084 13.3793 5.175 13.491Z" fill="white"/>
<defs>
<linearGradient id="paint0_linear" x1="3.3705" y1="5.9355" x2="10.374" y2="18.0645" gradientUnits="userSpaceOnUse">
<stop stop-color="#2368C4"/>
<stop offset="0.5" stop-color="#1A5DBE"/>
<stop offset="1" stop-color="#1146AC"/>
</linearGradient>
</defs>
</svg>
